<svg width="185" height="74" viewBox="0 0 185 74" fill="none" xmlns="http://www.w3.org/2000/svg">
<path d="M45.75 55.6667L55.4701 46.7433C55.756 46.4808 55.9167 46.1247 55.9167 45.7535V33.5C55.9167 31.567 54.2097 30 52.1042 30C49.9987 30 48.2917 31.567 48.2917 33.5V44" stroke="white" stroke-width="3" stroke-linecap="round" stroke-linejoin="round"/>
<path d="M45.75 46.3333L47.931 44.3311C48.1621 44.119 48.2917 43.8315 48.2917 43.5319C48.2917 43.1038 48.0281 42.7125 47.611 42.5209L46.4853 42.0043C44.5285 41.106 42.1647 41.4581 40.6176 42.8784L38.3431 44.9665C37.3897 45.8417 36.8542 47.0287 36.8542 48.2663V55.6667" stroke="white" stroke-width="3" stroke-linecap="round" stroke-linejoin="round"/>
<path d="M15.25 55.6667L5.52999 46.7433C5.24397 46.4808 5.08331 46.1247 5.08331 45.7535V33.5C5.08331 31.567 6.79022 30 8.89581 30C11.0014 30 12.7083 31.567 12.7083 33.5V44" stroke="white" stroke-width="3" stroke-linecap="round" stroke-linejoin="round"/>
<path d="M15.25 46.3333L13.0689 44.3311C12.838 44.119 12.7083 43.8315 12.7083 43.5319C12.7083 43.1038 12.9718 42.7125 13.3889 42.5209L14.5146 42.0043C16.4716 41.106 18.8352 41.4581 20.3824 42.8784L22.6569 44.9665C23.6103 45.8417 24.1458 47.0287 24.1458 48.2663V55.6667" stroke="white" stroke-width="3" stroke-linecap="round" stroke-linejoin="round"/>
<g clip-path="url(#clip0_3278_561)">
<path fill-rule="evenodd" clip-rule="evenodd" d="M19.1669 25.6758C19.7372 25.6758 20.1994 26.1002 20.1994 26.6237V36.1029H26.3948V29.4674C26.3948 28.7132 26.7211 27.9899 27.302 27.4566C27.883 26.9233 28.6709 26.6237 29.4924 26.6237H31.5575C32.3791 26.6237 33.167 26.9233 33.7479 27.4566C34.3288 27.9899 34.6552 28.7132 34.6552 29.4674V36.1029H40.8505V26.6237C40.8505 26.1002 41.3128 25.6758 41.883 25.6758C42.4533 25.6758 42.9156 26.1002 42.9156 26.6237V37.0508C42.9156 37.5743 42.4533 37.9987 41.883 37.9987H33.6226C33.0524 37.9987 32.5901 37.5743 32.5901 37.0508V29.4674C32.5901 29.216 32.4813 28.9749 32.2876 28.7972C32.094 28.6194 31.8314 28.5195 31.5575 28.5195H29.4924C29.2186 28.5195 28.9559 28.6194 28.7623 28.7972C28.5686 28.9749 28.4599 29.216 28.4599 29.4674V37.0508C28.4599 37.5743 27.9976 37.9987 27.4273 37.9987H19.1669C18.5966 37.9987 18.1343 37.5743 18.1343 37.0508V26.6237C18.1343 26.1002 18.5966 25.6758 19.1669 25.6758Z" fill="white" stroke="white" stroke-width="1.5" stroke-linecap="round" stroke-linejoin="round"/>
<path fill-rule="evenodd" clip-rule="evenodd" d="M30.525 12.2423C30.3893 12.2423 30.255 12.2668 30.1297 12.3145C30.0044 12.3622 29.8905 12.432 29.7946 12.5201L29.7944 12.5203L15.7668 25.3981C15.3636 25.7683 14.7098 25.7683 14.3066 25.3981C13.9033 25.0279 13.9033 24.4277 14.3066 24.0575L28.3339 11.18C28.6216 10.9157 28.9631 10.7061 29.3391 10.5631C29.7151 10.4201 30.118 10.3464 30.525 10.3464C30.9319 10.3464 31.3349 10.4201 31.7109 10.5631C32.0868 10.7061 32.4284 10.9157 32.7161 11.18L46.7434 24.0575C47.1466 24.4277 47.1466 25.0279 46.7434 25.3981C46.3402 25.7683 45.6864 25.7683 45.2831 25.3981L31.2556 12.5203L31.2553 12.5201C31.1595 12.432 31.0456 12.3622 30.9203 12.3145C30.795 12.2668 30.6606 12.2423 30.525 12.2423Z" fill="white" stroke="white" stroke-width="1.5" stroke-linecap="round" stroke-linejoin="round"/>
</g>
<path d="M84.32 26.16H92.51V30H84.32V26.16ZM84.32 32.28H92.51V36.12H84.32V32.28ZM79.88 24.09C81.3 24.09 82.57 24.4 83.69 25.02C84.83 25.62 85.73 26.45 86.39 27.51C87.07 28.55 87.41 29.75 87.41 31.11C87.41 32.45 87.07 33.65 86.39 34.71C85.73 35.75 84.83 36.58 83.69 37.2C82.57 37.8 81.3 38.1 79.88 38.1C78.48 38.1 77.21 37.8 76.07 37.2C74.93 36.58 74.02 35.75 73.34 34.71C72.68 33.65 72.35 32.45 72.35 31.11C72.35 29.75 72.68 28.55 73.34 27.51C74.02 26.45 74.93 25.62 76.07 25.02C77.21 24.4 78.48 24.09 79.88 24.09ZM79.88 28.17C79.32 28.17 78.82 28.28 78.38 28.5C77.94 28.7 77.59 29.02 77.33 29.46C77.07 29.9 76.94 30.45 76.94 31.11C76.94 31.75 77.07 32.29 77.33 32.73C77.59 33.17 77.94 33.5 78.38 33.72C78.82 33.94 79.32 34.05 79.88 34.05C80.46 34.05 80.97 33.94 81.41 33.72C81.85 33.5 82.19 33.17 82.43 32.73C82.69 32.29 82.82 31.75 82.82 31.11C82.82 30.45 82.69 29.9 82.43 29.46C82.19 29.02 81.85 28.7 81.41 28.5C80.97 28.28 80.46 28.17 79.88 28.17ZM90.98 22.71H95.84V39.09H90.98V22.71ZM86.15 39.6C88.15 39.6 89.88 39.83 91.34 40.29C92.8 40.73 93.93 41.37 94.73 42.21C95.53 43.05 95.93 44.06 95.93 45.24C95.93 46.42 95.53 47.43 94.73 48.27C93.93 49.13 92.8 49.78 91.34 50.22C89.88 50.66 88.15 50.88 86.15 50.88C84.15 50.88 82.42 50.66 80.96 50.22C79.5 49.78 78.37 49.13 77.57 48.27C76.77 47.43 76.37 46.42 76.37 45.24C76.37 44.06 76.77 43.05 77.57 42.21C78.37 41.37 79.5 40.73 80.96 40.29C82.42 39.83 84.15 39.6 86.15 39.6ZM86.15 43.32C85.03 43.32 84.09 43.39 83.33 43.53C82.59 43.65 82.04 43.85 81.68 44.13C81.32 44.41 81.14 44.78 81.14 45.24C81.14 45.7 81.32 46.08 81.68 46.38C82.04 46.66 82.59 46.87 83.33 47.01C84.09 47.13 85.03 47.19 86.15 47.19C87.29 47.19 88.23 47.13 88.97 47.01C89.71 46.87 90.26 46.66 90.62 46.38C90.98 46.08 91.16 45.7 91.16 45.24C91.16 44.78 90.98 44.41 90.62 44.13C90.26 43.85 89.71 43.65 88.97 43.53C88.23 43.39 87.29 43.32 86.15 43.32ZM109.908 37.5H114.798V41.76H109.908V37.5ZM99.6477 35.19H125.118V39H99.6477V35.19ZM112.308 40.41C115.368 40.41 117.768 40.87 119.508 41.79C121.268 42.69 122.148 43.98 122.148 45.66C122.148 47.32 121.268 48.6 119.508 49.5C117.768 50.42 115.368 50.88 112.308 50.88C109.248 50.88 106.838 50.42 105.078 49.5C103.338 48.6 102.468 47.32 102.468 45.66C102.468 43.98 103.338 42.69 105.078 41.79C106.838 40.87 109.248 40.41 112.308 40.41ZM112.308 44.04C111.168 44.04 110.228 44.1 109.488 44.22C108.768 44.32 108.228 44.49 107.868 44.73C107.528 44.95 107.358 45.26 107.358 45.66C107.358 46.04 107.528 46.35 107.868 46.59C108.228 46.83 108.768 47 109.488 47.1C110.228 47.2 111.168 47.25 112.308 47.25C113.448 47.25 114.378 47.2 115.098 47.1C115.838 47 116.378 46.83 116.718 46.59C117.078 46.35 117.258 46.04 117.258 45.66C117.258 45.26 117.078 44.95 116.718 44.73C116.378 44.49 115.838 44.32 115.098 44.22C114.378 44.1 113.448 44.04 112.308 44.04ZM112.398 23.1C114.498 23.1 116.318 23.33 117.858 23.79C119.418 24.23 120.618 24.87 121.458 25.71C122.318 26.53 122.748 27.52 122.748 28.68C122.748 29.82 122.318 30.81 121.458 31.65C120.618 32.49 119.418 33.14 117.858 33.6C116.318 34.04 114.498 34.26 112.398 34.26C110.318 34.26 108.498 34.04 106.938 33.6C105.378 33.14 104.168 32.49 103.308 31.65C102.468 30.81 102.048 29.82 102.048 28.68C102.048 27.52 102.468 26.53 103.308 25.71C104.168 24.87 105.378 24.23 106.938 23.79C108.498 23.33 110.318 23.1 112.398 23.1ZM112.398 26.79C111.238 26.79 110.258 26.86 109.458 27C108.658 27.12 108.058 27.32 107.658 27.6C107.258 27.86 107.058 28.22 107.058 28.68C107.058 29.12 107.258 29.48 107.658 29.76C108.058 30.04 108.658 30.25 109.458 30.39C110.258 30.51 111.238 30.57 112.398 30.57C113.578 30.57 114.558 30.51 115.338 30.39C116.138 30.25 116.738 30.04 117.138 29.76C117.538 29.48 117.738 29.12 117.738 28.68C117.738 28.22 117.538 27.86 117.138 27.6C116.738 27.32 116.138 27.12 115.338 27C114.558 26.86 113.578 26.79 112.398 26.79ZM136.275 24.45C137.755 24.45 139.085 24.76 140.265 25.38C141.465 25.98 142.405 26.82 143.085 27.9C143.785 28.96 144.135 30.18 144.135 31.56C144.135 32.92 143.785 34.14 143.085 35.22C142.405 36.3 141.465 37.15 140.265 37.77C139.085 38.37 137.755 38.67 136.275 38.67C134.795 38.67 133.455 38.37 132.255 37.77C131.075 37.15 130.135 36.3 129.435 35.22C128.735 34.14 128.385 32.92 128.385 31.56C128.385 30.18 128.735 28.96 129.435 27.9C130.135 26.82 131.075 25.98 132.255 25.38C133.455 24.76 134.795 24.45 136.275 24.45ZM136.275 28.59C135.695 28.59 135.165 28.7 134.685 28.92C134.205 29.14 133.825 29.47 133.545 29.91C133.265 30.35 133.125 30.9 133.125 31.56C133.125 32.22 133.265 32.78 133.545 33.24C133.825 33.68 134.205 34.01 134.685 34.23C135.165 34.45 135.695 34.56 136.275 34.56C136.855 34.56 137.375 34.45 137.835 34.23C138.315 34.01 138.695 33.68 138.975 33.24C139.255 32.78 139.395 32.22 139.395 31.56C139.395 30.9 139.255 30.35 138.975 29.91C138.695 29.47 138.315 29.14 137.835 28.92C137.375 28.7 136.855 28.59 136.275 28.59ZM146.205 22.65H151.035V50.91H146.205V22.65ZM127.905 45.45L127.365 41.58C128.985 41.58 130.775 41.57 132.735 41.55C134.695 41.51 136.715 41.43 138.795 41.31C140.875 41.17 142.885 40.96 144.825 40.68L145.155 44.16C143.175 44.56 141.155 44.85 139.095 45.03C137.055 45.21 135.075 45.33 133.155 45.39C131.255 45.43 129.505 45.45 127.905 45.45ZM167.3 25.11H171.26V26.61C171.26 28.31 170.99 29.94 170.45 31.5C169.91 33.06 169.05 34.42 167.87 35.58C166.69 36.74 165.13 37.6 163.19 38.16L160.79 34.41C162.03 34.07 163.06 33.62 163.88 33.06C164.72 32.48 165.39 31.84 165.89 31.14C166.39 30.44 166.75 29.7 166.97 28.92C167.19 28.14 167.3 27.37 167.3 26.61V25.11ZM168.32 25.11H172.25V26.61C172.25 27.33 172.35 28.05 172.55 28.77C172.77 29.49 173.12 30.19 173.6 30.87C174.1 31.53 174.75 32.13 175.55 32.67C176.37 33.19 177.38 33.62 178.58 33.96L176.21 37.68C174.33 37.16 172.81 36.35 171.65 35.25C170.49 34.13 169.64 32.82 169.1 31.32C168.58 29.82 168.32 28.25 168.32 26.61V25.11ZM162.08 24.03H177.35V27.81H162.08V24.03ZM179.54 22.71H184.4V37.98H179.54V22.71ZM165.38 39.09H170.15V41.22H179.6V39.09H184.4V50.58H165.38V39.09ZM170.15 44.91V46.74H179.6V44.91H170.15Z" fill="white"/>
<defs>
<clipPath id="clip0_3278_561">
<rect width="33.0417" height="30.3333" fill="white" transform="translate(14 9)"/>
</clipPath>
</defs>
</svg>
